HIERARCHY
ROOT Hips
{
	OFFSET 0.000000 0.000000 0.000000 
	CHANNELS 6 Xposition Yposition Zposition Yrotation Zrotation Xrotation 
	JOINT Lumbar
	{
		OFFSET 0.000000 0.000000 0.000000 
		CHANNELS 3 Zrotation Xrotation Yrotation
		JOINT Neck
		{
			OFFSET 0.000000 0.445665 0.000000 
			CHANNELS 3 Zrotation Xrotation Yrotation
			End Site
			{
				OFFSET 0.000000 0.227535 0.000000 
			}
		}
		JOINT RightShoulder
		{
			OFFSET 0.019635 0.377685 0.194865 
			CHANNELS 3 Zrotation Xrotation Yrotation
			JOINT RightElbow
			{
				OFFSET 0.000000 -0.243375 0.000000 
				CHANNELS 2 Zrotation Yrotation
				JOINT RightWrist
				{
					OFFSET 0.000000 -0.264825 0.000000 
					CHANNELS 2 Zrotation Xrotation
					End Site
					{
						OFFSET 0.006600 -0.176220 0.000990 
					}
				}
			}
		}
		JOINT LeftShoulder
		{
			OFFSET 0.019635 0.377685 -0.194865 
			CHANNELS 3 Zrotation Xrotation Yrotation
			JOINT LeftElbow
			{
				OFFSET 0.000000 -0.243375 0.000000 
				CHANNELS 2 Zrotation Yrotation
				JOINT LeftWrist
				{
					OFFSET 0.000000 -0.264825 0.000000 
					CHANNELS 2 Zrotation Xrotation
					End Site
					{
						OFFSET 0.006600 -0.176220 -0.000990 
					}
				}
			}
		}
	}
	JOINT RightHip
	{
		OFFSET 0.052140 -0.069960 0.075570 
		CHANNELS 3 Zrotation Xrotation Yrotation
		JOINT RightKnee
		{
			OFFSET 0.000000 -0.402270 0.000000 
			CHANNELS 1 Zrotation
			JOINT RightAnkle
			{
				OFFSET 0.000000 -0.404085 0.000000 
				CHANNELS 3 Zrotation Xrotation Yrotation
				End Site
				{
					OFFSET 0.204105 -0.089430 0.008415 
				}
			}
		}
	}
	JOINT LeftHip
	{
		OFFSET 0.052140 -0.069960 -0.075570 
		CHANNELS 3 Zrotation Xrotation Yrotation
		JOINT LeftKnee
		{
			OFFSET 0.000000 -0.402270 0.000000 
			CHANNELS 1 Zrotation
			JOINT LeftAnkle
			{
				OFFSET 0.000000 -0.404085 0.000000 
				CHANNELS 3 Zrotation Xrotation Yrotation
				End Site
				{
					OFFSET 0.204105 -0.089430 -0.008415 
				}
			}
		}
	}
}
MOTION
Frames: 28
Frame Time: 0.02
0.0307 0.00823 -0.01665 47.84827 -31.4734 -10.63611 46.13644 1.80701 14.06437 13.10756 6.41403 -0.83077 80.35453 -14.69203 64.17034 5.32871 85.27911 3.57028 2.7791 -54.70758 20.38529 -62.35775 102.6147 -86.64957 23.60156 2.93899 40.3905 0.7294 -8.21059 -19.08971 -6.34322 -2.96663 -2.1659 43.33252 3.70877 4.2407 -24.16744 -6.54879 2.56823 1.96747
0.03085 0.00828 -0.01681 47.74647 -31.42051 -10.63159 46.12305 1.80467 13.84862 12.93173 6.49482 -0.83077 81.08048 -14.37709 64.17036 5.32843 85.94774 3.3633 2.70694 -54.53708 20.26503 -62.56656 102.47552 -86.43886 23.06648 3.13574 40.32852 0.75255 -8.09794 -19.07667 -6.34236 -2.96372 -2.16416 43.25891 3.69376 4.15645 -24.16614 -6.54538 2.58502 1.97827
0.03103 0.00832 -0.01696 47.66192 -31.34746 -10.62822 46.09242 1.79638 13.59201 12.72775 6.57238 -0.83077 81.6504 -14.03665 64.17008 5.32894 86.95 3.16495 2.63789 -54.3347 20.13543 -62.82947 102.30336 -86.30833 22.47398 3.36708 40.23964 0.7803 -7.98569 -19.06326 -6.34102 -2.96125 -2.16242 43.16111 3.68533 4.08221 -24.16595 -6.54278 2.60191 1.98848
0.0312 0.00836 -0.01712 47.56974 -31.28458 -10.62493 46.07097 1.79038 13.36201 12.54259 6.64833 -0.83077 82.24189 -13.72118 64.1704 5.3286 87.8029 2.97522 2.55125 -54.16868 20.00717 -63.05268 102.1502 -86.12339 21.91483 3.57324 40.16377 0.80658 -7.87375 -19.05063 -6.33984 -2.95902 -2.16087 43.07499 3.67198 3.9914 -24.16543 -6.53977 2.62068 2.00005
0.03133 0.00841 -0.01726 47.47553 -31.21828 -10.61911 46.04448 1.78604 13.09793 12.33192 6.73828 -0.83077 83.05719 -13.34662 64.17027 5.32768 88.65204 2.73394 2.52919 -53.9131 19.88993 -63.33778 101.98231 -86.01306 21.32485 3.81834 40.08605 0.83115 -7.75463 -19.03538 -6.33898 -2.95557 -2.1589 42.98725 3.6657 3.94637 -24.16418 -6.53689 2.63199 2.00745
0.03157 0.00845 -0.01745 47.39065 -31.15408 -10.61885 46.02389 1.77697 12.8946 12.16769 6.79724 -0.83077 83.35852 -13.09161 64.16913 5.33146 89.57739 2.59901 2.37575 -53.83393 19.74789 -63.50938 101.83549 -85.7662 20.78336 3.99208 40.00516 0.85982 -7.65328 -19.02552 -6.33733 -2.95441 -2.15761 42.89668 3.64698 3.81184 -24.16468 -6.53395 2.65832 2.02306
0.03212 0.00845 -0.0178 47.32021 -31.09945 -10.63341 46.02715 1.75505 12.87651 12.13883 6.77973 -0.83077 82.33391 -13.1556 64.1725 5.3245 90.73987 2.78881 1.8476 -54.26926 19.54154 -63.3309 101.76724 -85.13092 20.41709 3.94593 39.92307 0.90125 -7.59122 -19.03072 -6.33354 -2.96093 -2.15885 42.80392 3.58853 3.40842 -24.16991 -6.53073 2.72944 2.06367
0.03279 0.00844 -0.01821 47.25995 -31.04773 -10.6536 46.03631 1.72888 12.91977 12.15744 6.72953 -0.83077 80.78352 -13.34507 64.16754 5.32979 91.94915 3.08053 1.19016 -54.88015 19.31073 -63.04018 101.71939 -84.35448 20.09734 3.82938 39.83841 0.94613 -7.54924 -19.04136 -6.32899 -2.96943 -2.16064 42.70906 3.51817 2.91876 -24.17681 -6.52743 2.81499 2.11212
0.0334 0.00843 -0.0186 47.19979 -30.99523 -10.67131 46.04054 1.7054 12.93 12.15449 6.68886 -0.83077 79.43903 -13.48742 64.16927 5.34091 93.06498 3.30257 0.5989 -55.39675 19.08967 -62.81679 101.65336 -83.6372 19.73824 3.75449 39.75403 0.98761 -7.50528 -19.04945 -6.32481 -2.97597 -2.16169 42.61512 3.45574 2.48151 -24.18286 -6.52412 2.8917 2.15551
0.03403 0.00843 -0.01896 47.1203 -30.93963 -10.68855 46.05363 1.67823 12.96015 12.15145 6.67073 -0.83077 78.23777 -13.58325 64.18329 5.29099 94.49198 3.61873 -0.02598 -55.97053 18.8727 -62.52839 101.62178 -82.94265 19.45215 3.64014 39.67223 1.03678 -7.43191 -19.05778 -6.32048 -2.98688 -2.1647 42.52032 3.38269 1.9882 -24.18941 -6.52101 2.97809 2.20521
0.03464 0.00841 -0.01939 47.08321 -30.89158 -10.70829 46.04994 1.65816 12.96442 12.15902 6.59775 -0.83077 76.60403 -13.81086 64.13894 5.38734 95.28406 3.76894 -0.60865 -56.47106 18.6432 -62.34552 101.52627 -82.16759 19.02807 3.59064 39.58512 1.07095 -7.42353 -19.06699 -6.31631 -2.98933 -2.16387 42.42738 3.32911 1.59176 -24.19521 -6.51749 3.0477 2.24363
0.03522 0.00833 -0.01994 47.16115 -30.86254 -10.73198 45.99798 1.6556 12.87769 12.19543 6.38296 -0.83077 74.00369 -14.33133 64.20984 5.74221 94.25496 3.38381 -1.0684 -56.69336 18.37336 -62.50323 101.228 -81.19268 18.19243 3.73858 39.48146 1.06049 -7.59894 -19.07664 -6.31252 -2.9665 -2.15146 42.3382 3.32998 1.47764 -24.19926 -6.51251 3.06773 2.24894
0.03578 0.00823 -0.02054 47.28119 -30.84138 -10.75827 45.92905 1.66082 12.76369 12.23927 6.11401 -0.83077 70.97052 -14.98766 64.17881 6.26799 92.59443 2.83725 -1.47684 -56.84157 18.09561 -62.76688 100.86924 -80.14364 17.2202 3.95384 39.37326 1.03522 -7.83737 -19.08709 -6.30896 -2.93537 -2.13532 42.25157 3.3512 1.4649 -24.20237 -6.50718 3.07033 2.24264
0.03634 0.00814 -0.02112 47.38161 -30.81732 -10.7844 45.86837 1.66468 12.66553 12.27213 5.8685 -0.83077 68.06881 -15.60849 64.00466 6.81198 91.25802 2.3995 -1.89176 -57.04631 17.82719 -62.96725 100.55174 -79.13586 16.32334 4.13732 39.26873 1.01826 -8.04089 -19.09764 -6.30545 -2.90899 -2.12143 42.16492 3.36458 1.41003 -24.20537 -6.50224 3.08072 2.24166
0.03694 0.00802 -0.02172 47.48462 -30.79014 -10.8064 45.80583 1.65963 12.55555 12.33738 5.62591 -0.83077 65.41588 -16.12331 64.59814 6.96163 89.76544 1.81811 -2.38082 -57.16329 17.52709 -63.22686 100.17509 -78.09059 15.37184 4.32327 39.15675 0.99479 -8.27148 -19.10652 -6.30123 -2.87854 -2.10519 42.0728 3.37178 1.33634 -24.21061 -6.49632 3.09215 2.24072
0.03745 0.00796 -0.02228 47.59191 -30.7717 -10.83754 45.74278 1.67452 12.46213 12.33802 5.36593 -0.83077 62.15917 -16.88903 63.60866 7.96046 88.44896 1.49319 -2.70339 -57.43986 17.29972 -63.39069 99.90913 -77.10846 14.50123 4.52109 39.05995 0.98126 -8.46051 -19.11886 -6.29859 -2.85457 -2.09297 41.99344 3.39659 1.32603 -24.21105 -6.49238 3.09708 2.23688
0.03774 0.00807 -0.02274 47.70223 -30.77201 -10.89325 45.68483 1.74732 12.42696 12.14399 5.06092 -0.83077 57.25705 -18.3175 57.92582 11.37059 87.75999 1.94187 -2.56253 -58.20259 17.20619 -63.2546 99.94341 -76.31454 13.88572 4.73441 39.0006 0.9993 -8.51814 -19.14171 -6.29993 -2.85053 -2.0928 41.94256 3.46702 1.47485 -24.19742 -6.49382 3.08842 2.22767
0.03795 0.00823 -0.02316 47.81502 -30.78154 -10.95795 45.62639 1.83912 12.40758 11.88739 4.74191 -0.83077 51.78211 -19.99175 50.71612 15.60871 87.27203 2.64894 -2.25824 -59.12223 17.20036 -63.01993 100.09342 -75.58977 13.35597 4.95765 38.95787 1.02769 -8.53175 -19.16775 -6.30292 -2.85332 -2.09681 41.90571 3.55406 1.68264 -24.17918 -6.49727 3.07376 2.21596
0.03818 0.00836 -0.02358 47.92571 -30.78899 -11.01869 45.5667 1.91908 12.37733 11.66831 4.43674 -0.83077 46.6253 -21.55178 44.43596 19.39728 86.70073 3.22018 -2.03884 -59.95156 17.19814 -62.83835 100.20545 -74.83488 12.78838 5.17756 38.91106 1.05107 -8.56637 -19.19156 -6.30538 -2.85296 -2.09886 41.86636 3.6324 1.85815 -24.16368 -6.49989 3.06168 2.20548
0.03846 0.00851 -0.02408 48.0422 -30.78751 -11.07943 45.51301 2.01266 12.36343 11.41009 4.09991 -0.83077 41.20276 -23.13062 37.16637 23.50293 86.07446 3.86336 -1.77307 -60.85978 17.00707 -62.62903 100.2596 -74.06543 12.2131 5.39576 38.84896 1.07546 -8.59954 -19.2188 -6.30689 -2.85243 -2.101 41.81029 3.71673 2.06068 -24.14537 -6.50217 3.04948 2.19416
0.03862 0.00863 -0.0244 48.1464 -30.80707 -11.14171 45.44646 2.08253 12.31746 11.21976 3.82414 -0.83077 36.21116 -24.7227 31.58507 27.14026 85.61758 4.42035 -1.56552 -61.64045 17.23661 -62.44816 100.45513 -73.35167 11.6737 5.6178 38.82331 1.10012 -8.62373 -19.23954 -6.31078 -2.85407 -2.10405 41.7929 3.79171 2.21911 -24.1319 -6.50564 3.03649 2.18422
0.0385 0.00866 -0.02432 48.21747 -30.87956 -11.2108 45.34877 2.07998 12.19717 11.22066 3.74084 -0.83077 32.48803 -26.32577 31.13806 29.30021 85.59167 4.67694 -1.56058 -62.04169 18.54908 -62.40433 101.07265 -72.71264 11.23718 5.85608 38.88938 1.12553 -8.63958 -19.24245 -6.32088 -2.85918 -2.10819 41.87411 3.84154 2.24625 -24.13221 -6.51186 3.0216 2.17803
0.03827 0.00865 -0.02406 48.27535 -30.97343 -11.28022 45.23759 2.05335 12.04087 11.29403 3.71636 -0.83077 29.23327 -27.92637 32.42517 30.95588 85.73025 4.83989 -1.61981 -62.30664 20.29013 -62.38267 101.8147 -72.14296 10.83316 6.09471 38.99257 1.15049 -8.64645 -19.23856 -6.33331 -2.86643 -2.11319 41.99463 3.88053 2.22615 -24.13769 -6.51922 3.00637 2.17347
0.03808 0.00866 -0.02387 48.33842 -31.05942 -11.34635 45.12972 2.03911 11.88919 11.3419 3.6513 -0.83077 25.80527 -29.50488 32.85374 32.82956 85.78846 5.04425 -1.64863 -62.62799 21.87547 -62.33151 102.46442 -71.5779 10.39453 6.32923 39.08188 1.17403 -8.65349 -19.23719 -6.34462 -2.87326 -2.1181 42.10022 3.92113 2.22318 -24.1413 -6.52607 2.99228 2.16873
0.03792 0.00868 -0.02375 48.40599 -31.13801 -11.42603 45.03319 2.01921 11.78733 11.35671 3.64244 -0.83077 22.18498 -31.19062 33.52528 34.77967 85.87664 5.25673 -1.67679 -62.98132 23.30876 -62.37101 103.28083 -70.84738 10.0291 6.58626 39.15884 1.20467 -8.67587 -19.23829 -6.35624 -2.87797 -2.12191 42.19385 3.97581 2.23819 -24.14277 -6.53296 2.97411 2.1617
0.03768 0.00867 -0.02343 48.4598 -31.23694 -11.47749 44.91052 2.00542 11.57335 11.45776 3.53285 -0.83077 19.08995 -32.6485 34.12394 36.43963 85.93935 5.43376 -1.72397 -63.22968 25.14709 -62.21312 103.76329 -70.49622 9.5347 6.78953 39.27052 1.22043 -8.66433 -19.23266 -6.36777 -2.88754 -2.12815 42.32165 3.99899 2.20682 -24.14992 -6.54 2.96406 2.15964
0.03725 0.00859 -0.02262 48.48891 -31.38664 -11.45052 44.71329 2.01183 11.05533 11.78468 3.11285 -0.83077 17.2851 -33.48226 34.0921 37.42044 85.88791 5.47321 -1.80638 -63.25077 28.10337 -61.63408 103.42143 -71.00422 8.52698 6.90461 39.46548 1.19389 -8.56555 -19.2093 -6.37824 -2.9097 -2.14081 42.53306 3.93239 2.0319 -24.17201 -6.54716 2.97993 2.17303
0.03676 0.0085 -0.02161 48.5026 -31.55592 -11.39516 44.49135 2.02566 10.42658 12.19483 2.59325 -0.83077 16.00527 -34.08462 33.93549 38.12265 85.80499 5.48967 -1.90669 -63.16205 31.43183 -60.83196 102.71613 -71.91784 7.41271 6.95577 39.69455 1.15252 -8.4328 -19.17954 -6.38858 -2.93662 -2.15583 42.77749 3.8353 1.81637 -24.19958 -6.55442 3.00344 2.19102
